HIERARCHY
ROOT joint_Root
{
	OFFSET 0.0 0.0 0.0
	CHANNELS 6 Xposition Yposition Zposition Zrotation Xrotation Yrotation 
	JOINT Hips
	{
		OFFSET 4.5925 91.4895 -427.239
		CHANNELS 6 Xposition Yposition Zposition Zrotation Xrotation Yrotation 
		JOINT Spine
		{
			OFFSET 15.7357 0.0 0.0
			CHANNELS 6 Xposition Yposition Zposition Zrotation Xrotation Yrotation 
			JOINT Chest
			{
				OFFSET 8.98455 -0.406207 0.0
				CHANNELS 6 Xposition Yposition Zposition Zrotation Xrotation Yrotation 
				JOINT Neck
				{
					OFFSET 16.3773 0.0 0.0
					CHANNELS 6 Xposition Yposition Zposition Zrotation Xrotation Yrotation 
					JOINT Head
					{
						OFFSET 6.45672 0.0 0.0
						CHANNELS 6 Xposition Yposition Zposition Zrotation Xrotation Yrotation 
						End Site
						{
							OFFSET 0.0 0.0 0.0
						}
					}
				}
				JOINT Shoulder_L
				{
					OFFSET 12.9942 -0.242716 4.98039
					CHANNELS 6 Xposition Yposition Zposition Zrotation Xrotation Yrotation 
					JOINT UpperArm_L
					{
						OFFSET 5.34809 0.0 0.0
						CHANNELS 6 Xposition Yposition Zposition Zrotation Xrotation Yrotation 
						JOINT LowerArm_L
						{
							OFFSET 24.3286 1.87007e-05 0.0
							CHANNELS 6 Xposition Yposition Zposition Zrotation Xrotation Yrotation 
							JOINT Hand_L
							{
								OFFSET 22.2916 0.0 0.0
								CHANNELS 6 Xposition Yposition Zposition Zrotation Xrotation Yrotation 
								End Site
								{
									OFFSET 0.0 0.0 0.0
								}
							}
						}
					}
				}
				JOINT Shoulder_R
				{
					OFFSET 12.9945 -0.242716 -4.98039
					CHANNELS 6 Xposition Yposition Zposition Zrotation Xrotation Yrotation 
					JOINT UpperArm_R
					{
						OFFSET -5.34813 0.0 0.0
						CHANNELS 6 Xposition Yposition Zposition Zrotation Xrotation Yrotation 
						JOINT LowerArm_R
						{
							OFFSET -24.3289 0.000322201 0.0
							CHANNELS 6 Xposition Yposition Zposition Zrotation Xrotation Yrotation 
							JOINT Hand_R
							{
								OFFSET -22.2915 -0.000108084 0.0
								CHANNELS 6 Xposition Yposition Zposition Zrotation Xrotation Yrotation 
								End Site
								{
									OFFSET 0.0 0.0 0.0
								}
							}
						}
					}
				}
			}
		}
		JOINT UpperLeg_L
		{
			OFFSET -2.19248 -6.46944 0.0
			CHANNELS 6 Xposition Yposition Zposition Zrotation Xrotation Yrotation 
			JOINT LowerLeg_L
			{
				OFFSET 39.0811 0.0 -1.23785e-05
				CHANNELS 6 Xposition Yposition Zposition Zrotation Xrotation Yrotation 
				JOINT Foot_L
				{
					OFFSET 40.9854 0.0 -1.26872e-05
					CHANNELS 6 Xposition Yposition Zposition Zrotation Xrotation Yrotation 
					JOINT Toes_L
					{
						OFFSET 11.7543 0.0 0.0
						CHANNELS 6 Xposition Yposition Zposition Zrotation Xrotation Yrotation 
						End Site
						{
							OFFSET 0.0 0.0 0.0
						}
					}
				}
			}
		}
		JOINT UpperLeg_R
		{
			OFFSET -2.19251 6.46944 0.0
			CHANNELS 6 Xposition Yposition Zposition Zrotation Xrotation Yrotation 
			JOINT LowerLeg_R
			{
				OFFSET -39.0811 -0.00228153 -0.0401928
				CHANNELS 6 Xposition Yposition Zposition Zrotation Xrotation Yrotation 
				JOINT Foot_R
				{
					OFFSET -40.9854 0.0 0.0
					CHANNELS 6 Xposition Yposition Zposition Zrotation Xrotation Yrotation 
					JOINT Toes_R
					{
						OFFSET -11.7543 0.0 0.0
						CHANNELS 6 Xposition Yposition Zposition Zrotation Xrotation Yrotation 
						End Site
						{
							OFFSET 0.0 0.0 0.0
						}
					}
				}
			}
		}
	}
}
MOTION
Frames:	6
Frame Time:	0.0333333
0.000000 0.000000 0.000000 0.000000 0.000000 -0.000000 2.320790 86.818300 506.390000 -89.065000 4.153270 179.236000 15.735700 0.000005 -0.000001 101.157000 83.471600 -101.617000 8.984550 -0.406207 -0.000000 5.058200 2.532220 -1.031260 16.377300 -0.000001 -0.000001 -0.514904 -3.527530 3.644030 6.456720 -0.000001 -0.000000 -1.421450 -4.406610 1.588630 12.994200 -0.242716 4.980390 -90.423900 1.465720 -73.866100 5.348090 -0.000007 -0.000001 -75.811100 21.285400 13.310200 24.328600 0.000019 0.000005 3.022990 0.595697 -78.862100 22.291600 -0.000001 0.000005 20.110600 5.511590 -7.007890 12.994500 -0.242716 -4.980390 89.146800 7.028640 -83.061100 -5.348130 -0.000001 -0.000004 -54.892600 20.856900 -28.002500 -24.328900 0.000322 -0.000009 -18.887000 0.651742 -91.902900 -22.291500 -0.000108 -0.000004 29.412000 5.662420 -16.344800 -2.192480 -6.469440 -0.000000 -179.378000 -9.094570 -25.725100 39.081100 -0.000007 -0.000012 -0.502602 0.432733 49.273200 40.985400 -0.000006 -0.000013 -1.234670 -5.898190 -74.729500 11.754300 -0.000000 0.000003 -0.000046 -0.000524 -16.597900 -2.192510 6.469440 -0.000001 175.789000 8.843150 171.104000 -39.081100 -0.002282 -0.040193 0.105904 -0.069596 55.871100 -40.985400 0.000008 0.000006 6.366500 -4.148540 -63.466900 -11.754300 -0.000006 -0.000006 -0.103176 -0.452369 -35.469200
0.000000 0.000000 0.000000 0.000000 0.000000 -0.000000 1.839910 85.982600 502.897000 -88.989500 3.250680 -179.591000 15.735700 0.000005 -0.000001 95.145400 83.255400 -95.577100 8.984550 -0.406207 -0.000000 5.674510 1.214680 -0.922538 16.377300 -0.000001 -0.000001 -0.666859 -3.488540 3.466580 6.456720 -0.000001 -0.000000 -1.489580 -3.775740 2.052960 12.994200 -0.242716 4.980390 -90.723500 2.587450 -74.371100 5.348090 -0.000007 -0.000001 -72.752500 20.551600 5.230990 24.328600 0.000019 0.000005 3.886060 0.633976 -80.748600 22.291600 -0.000001 0.000005 20.200700 5.503900 -6.691430 12.994500 -0.242716 -4.980390 89.008500 8.328380 -83.186600 -5.348130 -0.000001 -0.000004 -55.369000 23.843800 -21.290100 -24.328900 0.000322 -0.000009 -18.171400 -0.942563 -87.129600 -22.291500 -0.000108 -0.000004 29.532200 5.667950 -17.074700 -2.192480 -6.469440 -0.000000 -179.253000 -7.265700 -23.116700 39.081100 -0.000007 -0.000012 -0.571659 0.450260 51.776100 40.985400 -0.000006 -0.000013 -1.895110 -6.677440 -78.727500 11.754300 -0.000000 0.000003 -0.000176 -0.001662 -16.640500 -2.192510 6.469440 -0.000001 176.086000 9.013140 166.003000 -39.081100 -0.002282 -0.040193 0.137590 -0.056606 67.167100 -40.985400 0.000008 0.000006 7.859140 -7.418020 -55.206800 -11.754300 -0.000006 -0.000006 -0.035890 -0.243293 -26.556000
0.000000 0.000000 0.000000 0.000000 0.000000 -0.000000 1.444600 85.106300 499.776000 -89.295100 2.574710 -179.262000 15.735700 0.000005 -0.000001 91.233900 83.154200 -91.806600 8.984550 -0.406207 -0.000000 5.924160 0.303271 -1.159730 16.377300 -0.000001 -0.000001 -1.023900 -3.512830 3.164020 6.456720 -0.000001 -0.000000 -1.557610 -3.387020 2.470060 12.994200 -0.242716 4.980390 -90.918600 3.451910 -75.088800 5.348090 -0.000007 -0.000001 -69.334300 19.687900 -4.987750 24.328600 0.000019 0.000005 3.685570 0.486963 -82.483500 22.291600 -0.000001 0.000005 20.963700 5.496560 -6.395810 12.994500 -0.242716 -4.980390 88.796400 9.745480 -82.924500 -5.348130 -0.000001 -0.000004 -56.768100 26.096800 -13.909500 -24.328900 0.000322 -0.000009 -17.716200 -2.321760 -82.771100 -22.291500 -0.000108 -0.000004 30.226500 5.671640 -17.643800 -2.192480 -6.469440 -0.000000 -179.601000 -7.237300 -21.331100 39.081100 -0.000007 -0.000012 -0.630660 0.462541 53.744400 40.985400 -0.000006 -0.000013 -1.892010 -6.183170 -82.185100 11.754300 -0.000000 0.000003 -0.000293 -0.002550 -16.672600 -2.192510 6.469440 -0.000001 176.511000 9.252810 160.426000 -39.081100 -0.002282 -0.040193 0.130951 -0.031553 76.147200 -40.985400 0.000008 0.000006 8.425360 -9.926280 -56.309400 -11.754300 -0.000006 -0.000006 -0.015658 -0.141921 -22.364500
0.000000 0.000000 0.000000 0.000000 0.000000 -0.000000 1.248020 84.616800 496.804000 -88.888000 1.924400 -179.261000 15.735700 0.000005 -0.000001 88.267400 83.102600 -88.687600 8.984550 -0.406207 -0.000000 6.021110 -0.409575 -0.817887 16.377300 -0.000001 -0.000001 -1.218380 -3.490460 2.775370 6.456720 -0.000001 -0.000000 -1.701000 -3.064120 2.800160 12.994200 -0.242716 4.980390 -91.069200 4.193600 -75.682600 5.348090 -0.000007 -0.000001 -66.264000 18.228400 -15.926700 24.328600 0.000019 0.000005 3.146180 0.351312 -83.635300 22.291600 -0.000001 0.000005 21.310900 5.503050 -6.656610 12.994500 -0.242716 -4.980390 88.578200 10.757200 -82.425600 -5.348130 -0.000001 -0.000004 -58.969700 27.453300 -5.748080 -24.328900 0.000322 -0.000009 -17.599000 -3.201930 -80.011900 -22.291500 -0.000108 -0.000004 30.081000 5.670900 -17.524300 -2.192480 -6.469440 -0.000000 -178.980000 -7.810170 -19.247800 39.081100 -0.000007 -0.000012 -0.627835 0.450209 54.358000 40.985400 -0.000006 -0.000013 -1.666650 -5.030160 -84.815500 11.754300 -0.000000 0.000003 -0.000435 -0.003550 -16.708000 -2.192510 6.469440 -0.000001 178.035000 9.674020 155.045000 -39.081100 -0.002282 -0.040193 0.119907 -0.019164 80.704000 -40.985400 0.000008 0.000006 7.711620 -8.695430 -59.306900 -11.754300 -0.000006 -0.000006 -0.015849 -0.143100 -22.412900
0.000000 0.000000 0.000000 0.000000 0.000000 -0.000000 1.201900 84.630800 493.876000 -88.450700 0.805917 -179.583000 15.735700 0.000005 -0.000001 83.896900 83.076600 -84.081000 8.984550 -0.406207 -0.000000 6.001490 -1.465410 -0.291070 16.377300 -0.000001 -0.000001 -1.419610 -3.666770 2.488000 6.456720 -0.000001 -0.000000 -1.882470 -2.546770 3.032600 12.994200 -0.242716 4.980390 -91.015600 4.227250 -76.477900 5.348090 -0.000007 -0.000001 -64.964900 15.905500 -25.560000 24.328600 0.000019 0.000005 3.549270 0.324819 -84.777500 22.291600 -0.000001 0.000005 20.933800 5.513910 -7.104900 12.994500 -0.242716 -4.980390 88.380200 10.762600 -81.389200 -5.348130 -0.000001 -0.000004 -62.125000 28.407400 2.170850 -24.328900 0.000322 -0.000009 -18.177700 -3.698430 -78.884400 -22.291500 -0.000108 -0.000004 29.394800 5.668480 -17.150800 -2.192480 -6.469440 -0.000000 -178.264000 -7.603730 -16.746700 39.081100 -0.000007 -0.000012 -0.595376 0.446644 53.124700 40.985400 -0.000006 -0.000013 -1.606780 -4.164500 -86.358900 11.754300 -0.000000 0.000003 -0.000504 -0.004007 -16.724000 -2.192510 6.469440 -0.000001 -179.954000 10.873800 150.185000 -39.081100 -0.002282 -0.040193 0.103657 -0.017244 80.293100 -40.985400 0.000008 0.000006 6.252110 -7.772890 -61.606900 -11.754300 -0.000006 -0.000006 -0.015327 -0.139865 -22.280100
0.000000 0.000000 0.000000 0.000000 0.000000 -0.000000 1.296280 85.113900 490.783000 -87.966700 -0.318619 -179.967000 15.735700 0.000005 -0.000001 78.465400 83.012200 -78.365300 8.984550 -0.406207 -0.000000 5.935210 -2.788830 0.344543 16.377300 -0.000001 -0.000001 -1.582530 -3.836660 2.338800 6.456720 -0.000001 -0.000000 -1.973990 -1.717850 3.115110 12.994200 -0.242716 4.980390 -90.818500 3.640640 -77.321000 5.348090 -0.000007 -0.000001 -64.653900 13.512700 -32.719100 24.328600 0.000019 0.000005 3.221420 0.196760 -86.510200 22.291600 -0.000001 0.000005 21.674800 5.534570 -7.994640 12.994500 -0.242716 -4.980390 88.265900 10.180500 -80.280000 -5.348130 -0.000001 -0.000004 -65.518900 28.959100 9.326550 -24.328900 0.000322 -0.000009 -18.903600 -3.804120 -79.034000 -22.291500 -0.000108 -0.000004 28.455100 5.668060 -17.090000 -2.192480 -6.469440 -0.000000 -177.268000 -7.158160 -13.158100 39.081100 -0.000007 -0.000012 -0.601538 0.507846 49.829000 40.985400 -0.000006 -0.000013 -1.728690 -3.357530 -86.986300 11.754300 -0.000000 0.000003 -0.000399 -0.003297 -16.699200 -2.192510 6.469440 -0.000001 -177.696000 12.263900 146.862000 -39.081100 -0.002282 -0.040193 0.078429 -0.019927 75.196700 -40.985400 0.000008 0.000006 5.327790 -6.898440 -64.395300 -11.754300 -0.000006 -0.000006 -0.015204 -0.139097 -22.248500
